#!OML:ASF H:\Terrain\Patient Classification 1\Takeo\Monday\TakeoMonday.ASF
:FULLY-SPECIFIED
:DEGREES
1001
root 7.20157 17.7999 0.0234172 -367.035 32.6496 -366.055
lowerback 5.13711 0.165786 -0.565749
upperback 2.2831 0.192853 -2.45207
thorax -0.526505 0.11315 -2.21189
lowerneck -12.112 -6.80358 -6.81856
upperneck 2.25943 -8.76674 11.4164
head 3.46449 -3.93062 3.97852
rclavicle 6.56983e-014 -1.59028e-014
rhumerus -19.0569 41.8571 -108.211
rradius 68.6579
rwrist -16.6765
rhand -46.4444 43.5455
rfingers 7.12502
rthumb -19.1731 14.4706
lclavicle 6.56983e-014 -1.59028e-014
lhumerus -22.1992 -30.5987 100.672
lradius 84.1008
lwrist 22.6658
lhand -40.5342 4.8982
lfingers 7.12502
lthumb -13.4827 34.4418
rfemur -0.86415 -4.63365 19.3717
rtibia 27.4704
rfoot -14.2565 -17.6422
rtoes -2.01128
lfemur -2.67183 -2.76108 -17.8881
ltibia 24.3712
lfoot -17.8299 16.5957
ltoes 3.83057
1002
root 7.18718 17.7952 0.0144103 -367.483 32.3224 -366.128
lowerback 5.60014 0.168935 -0.563145
upperback 2.25311 0.187462 -2.41118
thorax -0.815466 0.109377 -2.17367
lowerneck -12.2093 -6.83454 -6.86698
upperneck 2.78139 -8.84915 11.4666
head 3.64992 -3.95601 3.9858
rclavicle -5.94366e-014 1.27222e-014
rhumerus -19.1469 41.8145 -108.297
rradius 68.7703
rwrist -17.0039
rhand -46.7699 42.5379
rfingers 7.12502
rthumb -19.486 13.4944
lclavicle -5.94366e-014 1.27222e-014
lhumerus -22.4674 -30.5615 100.746
lradius 84.2661
lwrist 22.6604
lhand -40.3064 5.2955
lfingers 7.12502
lthumb -13.2632 34.8535
rfemur -0.135938 -5.00294 19.5312
rtibia 27.3337
rfoot -14.0196 -18.3322
rtoes -4.33353
lfemur -2.25163 -2.90968 -17.8244
ltibia 24.4548
lfoot -17.9269 16.8971
ltoes 4.14215
1003
root 7.18032 17.7847 0.0239863 -367.345 31.6339 -366.236
lowerback 5.15641 0.274754 -0.498636
upperback 2.11859 0.335212 -2.38154
thorax -0.701477 0.182227 -2.18556
lowerneck -11.939 -7.04516 -6.6388
upperneck 2.82369 -9.16858 11.234
head 3.62467 -4.12959 3.85656
rclavicle 3.26007e-014 -3.18055e-015
rhumerus -19.2391 41.8494 -108.489
rradius 68.8852
rwrist -17.4754
rhand -46.8098 41.9901
rfingers 7.12502
rthumb -19.5245 12.9504
lclavicle 3.26007e-014 -3.18055e-015
lhumerus -22.5667 -30.5959 100.693
lradius 84.3319
lwrist 22.8087
lhand -40.2708 5.52724
lfingers 7.12502
lthumb -13.2288 35.0875
rfemur 0.271199 -5.66166 19.8207
rtibia 27.1349
rfoot -14.206 -18.5679
rtoes -7.79161
lfemur -2.4086 -2.53834 -17.5878
ltibia 24.6083
lfoot -18.1062 17.0249
ltoes 4.74778
1004
root 7.18037 17.7872 0.0283186 -366.986 31.213 -366.112
lowerback 4.69285 0.329173 -0.462835
upperback 1.99585 0.413338 -2.44959
thorax -0.565662 0.221044 -2.27674
lowerneck -11.6663 -7.18887 -6.27985
upperneck 2.58352 -9.37857 10.8612
head 3.48884 -4.25932 3.67869
rclavicle -7.58364e-014 -9.54166e-015
rhumerus -19.2638 41.8087 -108.575
rradius 69.0185
rwrist -17.7191
rhand -46.6493 41.9069
rfingers 7.12502
rthumb -19.3701 12.8517
lclavicle -7.58364e-014 -9.54166e-015
lhumerus -22.4305 -30.7789 100.569
lradius 84.2432
lwrist 22.8913
lhand -40.2416 5.58354
lfingers 7.12502
lthumb -13.2007 35.1456
rfemur 0.470427 -6.27693 19.7757
rtibia 26.7842
rfoot -14.4033 -18.6936
rtoes -8.14535
lfemur -2.73433 -2.2377 -17.6331
ltibia 24.7851
lfoot -18.2037 17.1864
ltoes 4.85419
1005
root 7.19171 17.799 0.024537 -366.74 30.7563 -366.085
lowerback 4.3334 0.351991 -0.194618
upperback 1.92983 0.45823 -2.46528
thorax -0.429017 0.244552 -2.4431
lowerneck -11.6537 -7.15726 -6.10286
upperneck 2.43569 -9.32875 10.5887
head 3.41432 -4.24802 3.57475
rclavicle -6.95746e-014 -3.18055e-015
rhumerus -19.1385 41.9757 -108.459
rradius 69.096
rwrist -17.9937
rhand -46.4513 41.9154
rfingers 7.12502
rthumb -19.1797 12.8411
lclavicle -6.95746e-014 -3.18055e-015
lhumerus -22.2943 -30.805 100.51
lradius 84.1424
lwrist 22.9849
lhand -40.4889 4.75441
lfingers 7.12502
lthumb -13.439 34.3009
rfemur 0.641211 -6.71706 19.7726
rtibia 26.4378
rfoot -14.4455 -18.8128
rtoes -7.05507
lfemur -3.00254 -2.22065 -17.6962
ltibia 24.9446
lfoot -18.3574 17.6842
ltoes 5.3621
1006
root 7.19396 17.8065 0.0190187 -366.865 30.198 -366.28
lowerback 4.28608 0.383671 0.166143
upperback 1.93827 0.514913 -2.39413
thorax -0.389022 0.274377 -2.57495
lowerneck -11.874 -7.08094 -6.25575
upperneck 2.57673 -9.21506 10.7151
head 3.49695 -4.17833 3.63865
rclavicle 4.54223e-014 3.18055e-015
rhumerus -18.8877 42.2046 -108.302
rradius 69.1091
rwrist -18.4051
rhand -46.2828 42.0757
rfingers 7.12502
rthumb -19.0176 12.9855
lclavicle 4.54223e-014 3.18055e-015
lhumerus -22.0595 -30.81 100.426
lradius 84.0747
lwrist 22.9859
lhand -40.8186 4.41962
lfingers 7.12502
lthumb -13.7568 33.9448
rfemur 1.02832 -7.08053 20.023
rtibia 26.1481
rfoot -14.2148 -19.0787
rtoes -8.34761
lfemur -2.91578 -2.11119 -17.5036
ltibia 24.9267
lfoot -18.2947 18.1957
ltoes 4.99204
1007
root 7.18686 17.7981 0.0118992 -367.018 29.7797 -366.213
lowerback 4.53049 0.418172 0.274217
upperback 1.85981 0.560381 -2.42013
thorax -0.602464 0.295605 -2.66783
lowerneck -11.7425 -7.03243 -6.47504
upperneck 2.69853 -9.15388 10.9618
head 3.53116 -4.14199 3.75581
rclavicle -3.03147e-014 1.59028e-014
rhumerus -18.9777 42.2299 -108.429
rradius 69.0995
rwrist -18.5634
rhand -46.5307 41.8786
rfingers 7.12502
rthumb -19.2561 12.8119
lclavicle -3.03147e-014 1.59028e-014
lhumerus -22.0578 -30.7717 100.435
lradius 84.0803
lwrist 22.5269
lhand -40.9024 5.1976
lfingers 7.12502
lthumb -13.8375 34.7173
rfemur 1.57587 -7.45531 19.9977
rtibia 25.8649
rfoot -13.7984 -19.1851
rtoes -9.84684
lfemur -2.64455 -1.91943 -17.5258
ltibia 24.9133
lfoot -18.5694 18.3266
ltoes 5.04457
1008
root 7.18276 17.7866 0.0100844 -366.712 29.4225 -365.706
lowerback 4.47888 0.444362 -0.00557941
upperback 1.67022 0.578388 -2.55804
thorax -0.768803 0.301567 -2.65407
lowerneck -11.558 -6.94852 -6.61485
upperneck 2.91151 -9.06479 11.1636
head 3.57547 -4.0929 3.84974
rclavicle 4.96962e-016 -6.36111e-015
rhumerus -19.4447 42.1749 -108.818
rradius 69.1615
rwrist -18.3968
rhand -46.7742 41.6271
rfingers 7.12502
rthumb -19.4902 12.584
lclavicle 4.96962e-016 -6.36111e-015
lhumerus -22.3177 -30.588 100.563
lradius 84.0384
lwrist 22.099
lhand -40.9104 5.3532
lfingers 7.12502
lthumb -13.8453 34.8724
rfemur 1.90895 -7.79326 19.5682
rtibia 25.5214
rfoot -13.6109 -19.1268
rtoes -10.0412
lfemur -2.63832 -1.81376 -17.9935
ltibia 24.9836
lfoot -19.1448 18.3506
ltoes 6.10172
1009
root 7.17328 17.776 0.00750572 -366.658 28.9923 -365.526
lowerback 4.4655 0.444567 -0.0311752
upperback 1.64066 0.576334 -2.63339
thorax -0.791201 0.30036 -2.71739
lowerneck -12.0723 -6.88436 -6.9624
upperneck 3.55989 -9.01225 11.7966
head 3.90077 -4.01127 4.08298
rclavicle 9.00992e-014 1.90833e-014
rhumerus -19.4889 42.2452 -108.97
rradius 69.2541
rwrist -18.3091
rhand -46.5992 41.4932
rfingers 7.12502
rthumb -19.322 12.4331
lclavicle 9.00992e-014 1.90833e-014
lhumerus -22.3426 -30.5314 100.437
lradius 84.0052
lwrist 22.194
lhand -40.9652 4.8268
lfingers 7.12502
lthumb -13.8981 34.3424
rfemur 2.33053 -8.04682 19.506
rtibia 25.1697
rfoot -13.6836 -19.0246
rtoes -10.953
lfemur -2.54301 -1.5855 -18.107
ltibia 24.9805
lfoot -19.1557 18.5331
ltoes 5.69242
1010
root 7.1601 17.7702 0.00482514 -367.007 28.3989 -366.001
lowerback 4.52366 0.456255 0.493599
upperback 1.70045 0.615154 -2.51864
thorax -0.756019 0.321087 -2.89693
lowerneck -12.4348 -6.90111 -7.35741
upperneck 3.83395 -9.02776 12.3311
head 4.09184 -3.98012 4.29819
rclavicle 6.43068e-014 3.33958e-014
rhumerus -19.202 42.5488 -108.84
rradius 69.289
rwrist -18.4734
rhand -46.4286 41.4398
rfingers 7.12502
rthumb -19.1579 12.3634
lclavicle 6.43068e-014 3.33958e-014
lhumerus -22.2955 -30.4247 100.258
lradius 84.256
lwrist 22.377
lhand -40.9276 4.69899
lfingers 7.12502
lthumb -13.8618 34.217
rfemur 2.76934 -7.96447 20.1421
rtibia 24.7202
rfoot -14.1894 -18.9619
rtoes -11.0381
lfemur -2.32936 -1.18459 -17.5238
ltibia 24.9234
lfoot -19.1956 18.5926
ltoes 5.13969
1011
root 7.14806 17.7728 0.0112473 -367.051 27.8651 -365.971
lowerback 4.5047 0.489849 0.465447
upperback 1.65952 0.657863 -2.48504
thorax -0.785927 0.341451 -2.84855
lowerneck -12.0448 -6.86156 -7.20519
upperneck 3.36521 -8.95243 12.093
head 3.85908 -3.977 4.22146
rclavicle 5.31749e-015 1.11319e-014
rhumerus -19.1898 42.9142 -108.886
rradius 69.2539
rwrist -18.5965
rhand -46.6497 41.6175
rfingers 7.12502
rthumb -19.3705 12.5623
lclavicle 5.31749e-015 1.11319e-014
lhumerus -22.0851 -30.3636 100.124
lradius 84.2077
lwrist 22.4578
lhand -40.8625 4.69672
lfingers 7.12502
lthumb -13.7991 34.2191
rfemur 3.16715 -7.71376 20.3254
rtibia 24.0224
rfoot -14.6882 -19.0358
rtoes -10.799
lfemur -2.18368 -0.784791 -17.4223
ltibia 24.9359
lfoot -19.3401 18.6175
ltoes 5.28892
1012
root 7.13922 17.7702 0.0168999 -366.807 27.602 -365.42
lowerback 4.47714 0.488336 -0.00300126
upperback 1.57883 0.633597 -2.58095
thorax -0.858812 0.327574 -2.68257
lowerneck -11.6861 -6.77478 -6.81914
upperneck 2.90547 -8.83356 11.6783
head 3.61117 -3.95465 4.05677
rclavicle -2.57178e-014 1.90833e-014
rhumerus -19.281 43.1997 -108.984
rradius 69.2306
rwrist -18.695
rhand -46.982 41.4912
rfingers 7.12502
rthumb -19.69 12.4684
lclavicle -2.57178e-014 1.90833e-014
lhumerus -21.8161 -30.2919 100.004
lradius 83.957
lwrist 22.3295
lhand -40.5105 4.91286
lfingers 7.12502
lthumb -13.4599 34.458
rfemur 3.64093 -7.74443 19.9418
rtibia 23.1658
rfoot -14.5823 -19.2026
rtoes -11.5411
lfemur -2.07575 -0.700902 -17.907
ltibia 24.8808
lfoot -19.4059 18.7164
ltoes 6.2228
1013
root 7.13453 17.7634 0.0176399 -366.68 27.2357 -365.281
lowerback 4.36014 0.493133 0.0366741
upperback 1.54519 0.64206 -2.59624
thorax -0.826995 0.331718 -2.71993
lowerneck -11.7003 -6.73238 -6.60027
upperneck 2.73085 -8.77328 11.4495
head 3.53341 -3.93544 3.95847
rclavicle 1.93815e-015 -4.77083e-015
rhumerus -19.2745 43.4167 -109.007
rradius 69.2925
rwrist -18.9413
rhand -46.9013 41.3219
rfingers 7.12502
rthumb -19.6124 12.2912
lclavicle 1.93815e-015 -4.77083e-015
lhumerus -21.7185 -30.0948 99.862
lradius 84.062
lwrist 22.093
lhand -40.2463 5.34903
lfingers 7.12502
lthumb -13.2052 34.9108
rfemur 3.96361 -7.65266 19.938
rtibia 22.3108
rfoot -14.6204 -19.4732
rtoes -10.1851
lfemur -1.99438 -0.829323 -18.0495
ltibia 24.7218
lfoot -19.88 18.9261
ltoes 8.05735
1014
root 7.13139 17.7704 0.0215898 -366.357 26.7153 -365.184
lowerback 4.02852 0.532663 0.162937
upperback 1.4367 0.700665 -2.63945
thorax -0.748227 0.360747 -2.83503
lowerneck -11.5796 -6.73327 -6.36372
upperneck 2.50381 -8.77147 11.1508
head 3.41893 -3.9536 3.83545
rclavicle 7.37988e-015 5.08889e-014
rhumerus -19.2985 43.4368 -109.173
rradius 69.298
rwrist -18.9978
rhand -46.4015 41.5161
rfingers 7.12502
rthumb -19.1319 12.4371
lclavicle 7.37988e-015 5.08889e-014
lhumerus -22.0301 -29.8414 99.778
lradius 84.4702
lwrist 21.9341
lhand -40.5902 5.10362
lfingers 7.12502
lthumb -13.5367 34.6436
rfemur 3.90154 -7.21579 20.0397
rtibia 21.4086
rfoot -14.911 -19.9588
rtoes -7.36344
lfemur -2.21449 -0.762999 -18.1207
ltibia 24.7062
lfoot -20.264 19.212
ltoes 8.9269
